<svg xmlns="http://www.w3.org/2000/svg" width="12.5" height="12.5" viewBox="0 0 12.5 12.5"><path d="M6.2 0c-3.4 0-6.2 2.8-6.2 6.2 0 3.4 2.8 6.2 6.2 6.2 3.4 0 6.2-2.8 6.2-6.2.1-3.4-2.7-6.2-6.2-6.2zm.6 9.8h-1v-1h1v1zm1.5-4.2c-.1.3-.4.6-.8.9-.3.3-.5.4-.5.6-.1.1-.2.2-.2.3s-.1.4-.1.8h-.8v-.3c0-.3 0-.6.1-.8.1-.2.2-.4.3-.5l.7-.7.6-.6c0-.1.1-.3.1-.5 0-.3-.1-.6-.4-.9s-.6-.3-1-.3c-.3 0-.6.1-.8.3s-.4.6-.5 1.1l-.9-.1c.1-.6.3-1.1.7-1.5.4-.3.9-.5 1.5-.5.7 0 1.2.2 1.6.5.4.4.6.8.6 1.3 0 .4-.1.7-.2.9z" fill="#1FBDC3"/></svg>